<svg width="33" height="33" viewBox="0 0 33 33" fill="none" xmlns="http://www.w3.org/2000/svg">
<path d="M19.4102 18.2393L31.4953 21.2087C32.6033 17.9465 32.6587 14.7086 31.4913 11.4545L19.4537 14.5093L28.017 5.25954C25.8762 2.6522 23.1616 1.11057 19.9444 0.439407L16.3355 12.6911L12.9482 0.305176C10.1901 0.752614 6.08259 3.15658 4.60658 5.17412L13.1936 14.3059L1.21927 11.365C0.103362 14.6476 0.0202619 17.9099 1.18762 21.1924L13.1105 18.1661L4.61054 27.3467C6.7276 30.0802 9.40262 31.7845 12.7741 32.2767L16.3474 20.147L19.6714 32.3052C23.0033 31.6422 25.7772 30.0151 28.0249 27.4037L19.4142 18.2434L19.4102 18.2393Z" fill="#FD5D01"/>
</svg>
