<svg width="92" height="24" viewBox="0 0 92 24" fill="none" xmlns="http://www.w3.org/2000/svg">
<g style="mix-blend-mode:difference" clip-path="url(#clip0_215_164)">
<path d="M74.859 7.87391C75.1297 8.95679 75.3889 9.99935 75.6519 11.0515C74.3252 11.5738 73.01 11.5738 71.6794 11.0515C71.9425 10.0013 72.2017 8.96063 72.4609 7.91999C72.4532 7.91423 72.4474 7.91039 72.4398 7.90463C71.6602 8.64191 70.8788 9.37727 70.0897 10.1222C68.8705 9.29855 68.2503 8.13695 68.1025 6.68159C69.1028 6.37631 70.0974 6.07295 71.09 5.77151C71.09 5.75999 71.0919 5.74847 71.0938 5.73887C70.1012 5.43551 69.1086 5.13407 68.0986 4.82495C68.2638 3.39071 68.9607 2.27327 70.0878 1.38431C70.873 2.12543 71.6545 2.86271 72.434 3.59999C72.4417 3.59615 72.4513 3.59231 72.459 3.58847C72.1998 2.55167 71.9406 1.51295 71.6814 0.47807C72.3726 -0.0576104 74.7342 -0.0652881 75.6462 0.468472C75.387 1.50527 75.1278 2.54783 74.8666 3.58847C74.8743 3.59423 74.8801 3.59999 74.8878 3.60383C75.6673 2.86847 76.4468 2.13119 77.2378 1.38623C78.361 2.26559 79.058 3.38303 79.2289 4.82687C78.1806 5.13215 77.1438 5.43551 76.105 5.73887L76.1012 5.77151C77.138 6.07487 78.1729 6.37631 79.2289 6.68543C79.0676 8.11967 78.3783 9.24095 77.2398 10.128C76.4526 9.38495 75.6692 8.64575 74.8551 7.87775L74.859 7.87391Z" fill="#DBDBDB"/>
<path d="M87.1314 7.87391C87.4021 8.95679 87.6613 9.99935 87.9244 11.0515C86.5977 11.5738 85.2825 11.5738 83.9519 11.0515C84.2149 10.0013 84.4741 8.96063 84.7333 7.91999C84.7257 7.91423 84.7199 7.91039 84.7122 7.90463C83.9327 8.64191 83.1513 9.37727 82.3621 10.1222C81.1429 9.29855 80.5228 8.13695 80.3749 6.68159C81.3753 6.37631 82.3698 6.07295 83.3625 5.77151C83.3625 5.75999 83.3644 5.74847 83.3663 5.73887C82.3737 5.43551 81.381 5.13407 80.3711 4.82495C80.5362 3.39071 81.2332 2.27327 82.3602 1.38431C83.1455 2.12543 83.9269 2.86271 84.7065 3.59999C84.7141 3.59615 84.7237 3.59231 84.7314 3.58847C84.4722 2.55167 84.213 1.51295 83.9538 0.47807C84.645 -0.0576104 87.0066 -0.0652881 87.9186 0.468472C87.6594 1.50527 87.4002 2.54783 87.1391 3.58847C87.1468 3.59423 87.1525 3.59999 87.1602 3.60383C87.9397 2.86847 88.7193 2.13119 89.5103 1.38623C90.6335 2.26559 91.3305 3.38303 91.5013 4.82687C90.453 5.13215 89.4162 5.43551 88.3775 5.73887L88.3737 5.77151C89.4105 6.07487 90.4453 6.37631 91.5013 6.68543C91.3401 8.11967 90.6508 9.24095 89.5122 10.128C88.725 9.38495 87.9416 8.64575 87.1276 7.87775L87.1314 7.87391Z" fill="#DBDBDB"/>
<path d="M74.859 20.1447C75.1297 21.2275 75.3889 22.2701 75.6519 23.3223C74.3252 23.8445 73.01 23.8445 71.6794 23.3223C71.9425 22.272 72.2017 21.2314 72.4609 20.1907C72.4532 20.185 72.4474 20.1811 72.4398 20.1754C71.6602 20.9127 70.8788 21.648 70.0897 22.393C68.8705 21.5693 68.2503 20.4077 68.1025 18.9523C69.1028 18.6471 70.0974 18.3437 71.09 18.0423C71.09 18.0307 71.0919 18.0192 71.0938 18.0096C70.1012 17.7063 69.1086 17.4048 68.0986 17.0957C68.2638 15.6615 68.9607 14.544 70.0878 13.6551C70.873 14.3962 71.6545 15.1335 72.434 15.8707C72.4417 15.8669 72.4513 15.8631 72.459 15.8592C72.1998 14.8224 71.9406 13.7837 71.6814 12.7488C72.3726 12.2131 74.7342 12.2055 75.6462 12.7392C75.387 13.776 75.1278 14.8186 74.8666 15.8592C74.8743 15.865 74.8801 15.8707 74.8878 15.8746C75.6673 15.1392 76.4468 14.4019 77.2378 13.657C78.361 14.5363 79.058 15.6538 79.2289 17.0976C78.1806 17.4029 77.1438 17.7063 76.105 18.0096L76.1012 18.0423C77.138 18.3456 78.1729 18.6471 79.2289 18.9562C79.0676 20.3904 78.3783 21.5117 77.2398 22.3987C76.4526 21.6557 75.6692 20.9165 74.8551 20.1485L74.859 20.1447Z" fill="#DBDBDB"/>
<path d="M87.1314 20.1447C87.4021 21.2275 87.6613 22.2701 87.9244 23.3223C86.5977 23.8445 85.2825 23.8445 83.9519 23.3223C84.2149 22.272 84.4741 21.2314 84.7333 20.1907C84.7257 20.185 84.7199 20.1811 84.7122 20.1754C83.9327 20.9127 83.1513 21.648 82.3621 22.393C81.1429 21.5693 80.5228 20.4077 80.3749 18.9523C81.3753 18.6471 82.3698 18.3437 83.3625 18.0423C83.3625 18.0307 83.3644 18.0192 83.3663 18.0096C82.3737 17.7063 81.381 17.4048 80.3711 17.0957C80.5362 15.6615 81.2332 14.544 82.3602 13.6551C83.1455 14.3962 83.9269 15.1335 84.7065 15.8707C84.7141 15.8669 84.7237 15.8631 84.7314 15.8592C84.4722 14.8224 84.213 13.7837 83.9538 12.7488C84.645 12.2131 87.0066 12.2055 87.9186 12.7392C87.6594 13.776 87.4002 14.8186 87.1391 15.8592C87.1468 15.865 87.1525 15.8707 87.1602 15.8746C87.9397 15.1392 88.7193 14.4019 89.5103 13.657C90.6335 14.5363 91.3305 15.6538 91.5013 17.0976C90.453 17.4029 89.4162 17.7063 88.3775 18.0096L88.3737 18.0423C89.4105 18.3456 90.4453 18.6471 91.5013 18.9562C91.3401 20.3904 90.6508 21.5117 89.5122 22.3987C88.725 21.6557 87.9416 20.9165 87.1276 20.1485L87.1314 20.1447Z" fill="#DBDBDB"/>
<path d="M0.495361 0.558716H3.63456L5.7312 7.06559H5.76L7.85664 0.558716H10.9958V10.7597H8.57088V4.41024H8.54208L6.64512 10.7597H4.848L2.95104 4.41024H2.92224V10.7597H0.49728V0.558716H0.495361Z" fill="#DBDBDB"/>
<path d="M19.415 4.4678V6.56444H14.9625V8.66108H20.2137V10.7577H12.3955V0.556763H20.1293V2.65341H14.9645V4.46589H19.4169L19.415 4.4678Z" fill="#DBDBDB"/>
<path d="M28.3738 4.4678V6.56444H23.9213V8.66108H29.1725V10.7577H21.3542V0.556763H29.088V2.65341H23.9232V4.46589H28.3757L28.3738 4.4678Z" fill="#DBDBDB"/>
<path d="M32.8262 2.65535H29.8579V0.558716H38.3482V2.65535H35.3952V10.7597H32.8262V2.65535Z" fill="#DBDBDB"/>
<path d="M41.8712 0.558716V10.7597H39.3022V0.558716H41.8712Z" fill="#DBDBDB"/>
<path d="M43.269 0.558716H45.838L49.4054 6.62207H49.4342V0.558716H52.0031V10.7597H49.4342L45.8668 4.69631H45.838V10.7597H43.269V0.558716Z" fill="#DBDBDB"/>
<path d="M57.9666 2.42687C56.2827 2.42687 55.6414 3.74015 55.6414 5.65247C55.6414 7.56479 56.2827 8.89151 58.0664 8.89151C59.251 8.89151 60.0786 8.17727 60.1074 7.19423H58.1662V5.33951H62.7608V10.7616H60.9195L60.6622 9.46367H60.6334C60.1477 10.391 59.1915 10.9901 57.6939 10.9901C54.7966 10.9901 53.0706 8.73599 53.0706 5.65439C53.0706 2.57279 54.7966 0.332153 58.0069 0.332153C60.8043 0.332153 62.3595 1.98719 62.6014 3.94175H60.0325C59.8462 3.24287 59.3758 2.42879 57.9627 2.42879L57.9666 2.42687Z" fill="#DBDBDB"/>
<path d="M8.69944 20.6362C8.69944 22.5907 7.21528 23.8618 4.66168 23.8618C2.10808 23.8618 0.00952148 22.5485 0.00952148 20.281H2.57848C2.57848 21.3658 3.5212 21.7651 4.66168 21.7651C5.61784 21.7651 6.13048 21.3946 6.13048 20.88C6.13048 20.0659 5.03224 19.8816 3.59032 19.4535C1.83544 18.9389 0.293681 18.1843 0.293681 16.3008C0.293681 14.0755 2.03512 13.2039 4.2316 13.2039C6.61432 13.2039 8.4844 14.4595 8.55544 16.5274H5.98648C5.8732 15.7575 5.21656 15.3005 4.2316 15.3005C3.46168 15.3005 2.86264 15.5424 2.86264 16.1146C2.86264 16.7424 3.50392 16.9421 4.7884 17.2992C6.71416 17.8272 8.69752 18.4551 8.69752 20.6381L8.69944 20.6362Z" fill="#DBDBDB"/>
<path d="M9.31201 18.5241C9.31201 15.456 11.1245 13.2019 14.3635 13.2019C17.6026 13.2019 19.4151 15.456 19.4151 18.5241C19.4151 21.5923 17.5738 23.8598 14.3635 23.8598C11.1533 23.8598 9.31201 21.6057 9.31201 18.5241ZM16.8461 18.5241C16.8461 16.7539 16.2183 15.2985 14.3635 15.2985C12.5088 15.2985 11.881 16.7539 11.881 18.5241C11.881 20.2944 12.4954 21.7632 14.3635 21.7632C16.2317 21.7632 16.8461 20.3078 16.8461 18.5241Z" fill="#DBDBDB"/>
<path d="M20.3979 13.4304H25.2056C27.475 13.4304 28.844 14.4711 28.844 16.3987C28.844 17.7543 28.0453 18.6106 26.7742 18.8947V18.9235C29.3278 19.3651 28.4005 23.3184 28.9861 23.4893V23.6314H26.3173C25.8181 23.2032 26.7454 20.0794 24.5624 20.0794H22.965V23.6314H20.396V13.4304H20.3979ZM22.9669 17.9827H24.7083C25.7355 17.9827 26.277 17.6122 26.277 16.7559C26.277 15.8995 25.7355 15.529 24.7083 15.529H22.9669V17.9827Z" fill="#DBDBDB"/>
<path d="M36.9927 17.3395V19.4361H32.5402V21.5328H37.7914V23.6294H29.9731V13.4285H37.7069V15.5251H32.5421V17.3376H36.9946L36.9927 17.3395Z" fill="#DBDBDB"/>
</g>
<defs>
<clipPath id="clip0_215_164">
<rect width="91.584" height="24" fill="white"/>
</clipPath>
</defs>
</svg>
