<svg width="271" height="273" viewBox="0 0 271 273" fill="none" xmlns="http://www.w3.org/2000/svg">
<g clip-path="url(#clip0_120_681)">
<path d="M78.35 90.01C81.47 102.5 84.47 114.49 87.49 126.62C72.2 132.65 57.04 132.64 41.72 126.62C44.74 114.52 47.74 102.52 50.73 90.53C50.65 90.47 50.57 90.41 50.49 90.35C41.5 98.84 32.51 107.32 23.41 115.91C9.34997 106.42 2.20997 93.03 0.499969 76.26C12.02 72.75 23.48 69.26 34.93 65.77C34.95 65.64 34.96 65.51 34.98 65.39C23.55 61.9 12.11 58.42 0.469971 54.87C2.37997 38.35 10.41 25.47 23.4 15.23C32.44 23.77 41.44 32.26 50.44 40.76C50.53 40.72 50.63 40.67 50.72 40.63C47.73 28.67 44.75 16.72 41.77 4.77997C49.73 -1.40003 76.95 -1.49003 87.45 4.66997C84.46 16.63 81.47 28.62 78.47 40.61C78.55 40.67 78.63 40.73 78.71 40.79C87.7 32.31 96.68 23.83 105.79 15.23C118.72 25.37 126.75 38.25 128.74 54.86C116.67 58.38 104.71 61.88 92.75 65.37C92.74 65.5 92.72 65.62 92.71 65.75C104.65 69.24 116.58 72.72 128.74 76.28C126.88 92.81 118.93 105.73 105.82 115.94C96.75 107.38 87.72 98.86 78.33 90L78.35 90.01Z" fill="#1A1A1A"/>
<path d="M219.75 90.01C222.87 102.5 225.87 114.49 228.89 126.62C213.6 132.65 198.44 132.64 183.12 126.62C186.14 114.52 189.14 102.52 192.13 90.53C192.05 90.47 191.97 90.41 191.89 90.35C182.9 98.84 173.91 107.32 164.81 115.91C150.75 106.42 143.61 93.03 141.9 76.26C153.42 72.75 164.88 69.26 176.33 65.77C176.35 65.64 176.36 65.51 176.38 65.39C164.95 61.9 153.51 58.42 141.87 54.87C143.78 38.35 151.81 25.47 164.8 15.23C173.84 23.77 182.84 32.26 191.84 40.76C191.93 40.72 192.03 40.67 192.12 40.63C189.13 28.67 186.15 16.72 183.17 4.77997C191.13 -1.40003 218.35 -1.49003 228.85 4.66997C225.86 16.63 222.87 28.62 219.87 40.61C219.95 40.67 220.03 40.73 220.11 40.79C229.1 32.31 238.08 23.83 247.19 15.23C260.12 25.37 268.15 38.25 270.14 54.86C258.07 58.38 246.11 61.88 234.15 65.37L234.11 65.75C246.05 69.24 257.98 72.72 270.14 76.28C268.28 92.81 260.33 105.73 247.22 115.94C238.15 107.38 229.12 98.86 219.73 90L219.75 90.01Z" fill="#1A1A1A"/>
<path d="M78.35 231.41C81.47 243.9 84.47 255.89 87.49 268.02C72.2 274.05 57.04 274.04 41.72 268.02C44.74 255.92 47.74 243.92 50.73 231.93C50.65 231.87 50.57 231.81 50.49 231.75C41.5 240.24 32.51 248.72 23.41 257.31C9.34997 247.82 2.20997 234.43 0.499969 217.66C12.02 214.15 23.48 210.66 34.93 207.17C34.95 207.04 34.96 206.91 34.98 206.79C23.55 203.3 12.11 199.82 0.469971 196.27C2.37997 179.75 10.41 166.87 23.4 156.63C32.44 165.17 41.44 173.66 50.44 182.16C50.53 182.12 50.63 182.07 50.72 182.03C47.73 170.07 44.75 158.12 41.77 146.18C49.73 140 76.95 139.91 87.45 146.07C84.46 158.03 81.47 170.02 78.47 182.01C78.55 182.07 78.63 182.13 78.71 182.19C87.7 173.71 96.68 165.23 105.79 156.63C118.72 166.77 126.75 179.65 128.74 196.26C116.67 199.78 104.71 203.28 92.75 206.77C92.74 206.9 92.72 207.02 92.71 207.15C104.65 210.64 116.58 214.12 128.74 217.68C126.88 234.21 118.93 247.13 105.82 257.34C96.75 248.78 87.72 240.26 78.33 231.4L78.35 231.41Z" fill="#1A1A1A"/>
<path d="M219.75 231.41C222.87 243.9 225.87 255.89 228.89 268.02C213.6 274.05 198.44 274.04 183.12 268.02C186.14 255.92 189.14 243.92 192.13 231.93C192.05 231.87 191.97 231.81 191.89 231.75C182.9 240.24 173.91 248.72 164.81 257.31C150.75 247.82 143.61 234.43 141.9 217.66C153.42 214.15 164.88 210.66 176.33 207.17C176.35 207.04 176.36 206.91 176.38 206.79C164.95 203.3 153.51 199.82 141.87 196.27C143.78 179.75 151.81 166.87 164.8 156.63C173.84 165.17 182.84 173.66 191.84 182.16C191.93 182.12 192.03 182.07 192.12 182.03C189.13 170.07 186.15 158.12 183.17 146.18C191.13 140 218.35 139.91 228.85 146.07C225.86 158.03 222.87 170.02 219.87 182.01C219.95 182.07 220.03 182.13 220.11 182.19C229.1 173.71 238.08 165.23 247.19 156.63C260.12 166.77 268.15 179.65 270.14 196.26C258.07 199.78 246.11 203.28 234.15 206.77L234.11 207.15C246.05 210.64 257.98 214.12 270.14 217.68C268.28 234.21 260.33 247.13 247.22 257.34C238.15 248.78 229.12 240.26 219.73 231.4L219.75 231.41Z" fill="#1A1A1A"/>
</g>
<defs>
<clipPath id="clip0_120_681">
<rect width="271" height="273" fill="white"/>
</clipPath>
</defs>
</svg>
