<svg width="241" height="241" viewBox="0 0 241 241" fill="none" xmlns="http://www.w3.org/2000/svg">
<g style="mix-blend-mode:plus-lighter">
<rect x="2.73205" y="88.7321" width="172" height="172" rx="86" transform="rotate(-30 2.73205 88.7321)" stroke="#FD5D01" stroke-width="4"/>
<g clip-path="url(#clip0_585_1077)">
<path d="M94.7117 116.114C97.8481 119.359 100.86 122.473 103.903 125.626C100.318 130.137 95.7143 132.791 90.0081 133.648C88.8041 129.446 87.6116 125.277 86.4177 121.113C86.3829 121.109 86.3481 121.104 86.3133 121.1C85.0721 125.253 83.8292 129.403 82.5722 133.606C76.6404 133.19 72.1258 130.376 68.6673 125.585C71.5494 122.5 74.4168 119.432 77.2812 116.365C77.2644 116.322 77.2447 116.281 77.2297 116.241C73.148 117.185 69.065 118.134 64.909 119.096C62.5933 113.746 62.7735 108.428 64.9223 103.043C69.1636 104.051 73.384 105.051 77.6061 106.054C77.6265 106.026 77.6481 105.993 77.6684 105.965C74.6643 102.859 71.6651 99.753 68.6676 96.6505C70.0009 93.3791 78.2488 88.5808 82.5162 88.6104C83.7048 92.7654 84.8986 96.9295 86.0894 101.095C86.1242 101.1 86.159 101.104 86.1938 101.108C87.4367 96.9578 88.6766 92.8094 89.9349 88.6018C95.6376 89.4138 100.333 91.9166 103.849 96.6104C100.801 99.7946 97.7837 102.953 94.7645 106.109C94.7843 106.151 94.7992 106.19 94.819 106.232C99.0555 105.198 103.287 104.164 107.603 103.113C109.936 108.458 109.787 113.773 107.596 119.171C103.342 118.162 99.1075 117.158 94.7038 116.114L94.7117 116.114Z" fill="#FD5D01"/>
<path d="M137.639 91.3295C140.775 94.5745 143.788 97.6887 146.831 100.842C143.246 105.352 138.642 108.007 132.935 108.864C131.731 104.662 130.539 100.493 129.345 96.3285C129.31 96.3243 129.275 96.3201 129.241 96.3159C127.999 100.469 126.756 104.619 125.499 108.822C119.568 108.405 115.053 105.592 111.595 100.8C114.477 97.7157 117.344 94.6475 120.208 91.5811C120.192 91.5381 120.172 91.4969 120.157 91.4569C116.075 92.4008 111.992 93.3495 107.836 94.312C105.521 88.9619 105.701 83.6442 107.85 78.2586C112.091 79.2668 116.311 80.2668 120.533 81.2698C120.554 81.2418 120.575 81.2091 120.596 81.1812C117.592 78.0744 114.592 74.9688 111.595 71.8663C112.928 68.5949 121.176 63.7966 125.443 63.8263C126.632 67.9813 127.826 72.1454 129.017 76.3112C129.051 76.3154 129.086 76.3196 129.121 76.3238C130.364 72.1736 131.604 68.0252 132.862 63.8176C138.565 64.6296 143.26 67.1324 146.776 71.8262C143.728 75.0104 140.711 78.1693 137.692 81.3251L137.746 81.4475C141.983 80.4142 146.215 79.3796 150.53 78.329C152.863 83.6734 152.714 88.9892 150.523 94.3867C146.27 93.3778 142.035 92.3739 137.631 91.33L137.639 91.3295Z" fill="#FD5D01"/>
<path d="M119.496 159.041C122.632 162.286 125.645 165.401 128.688 168.554C125.103 173.064 120.498 175.719 114.792 176.576C113.588 172.373 112.396 168.205 111.202 164.04C111.167 164.036 111.132 164.032 111.097 164.028C109.856 168.181 108.613 172.331 107.356 176.534C101.425 176.117 96.91 173.304 93.4515 168.512C96.3336 165.428 99.201 162.359 102.065 159.293C102.049 159.25 102.029 159.209 102.014 159.169C97.9322 160.113 93.8492 161.061 89.6932 162.024C87.3775 156.674 87.5577 151.356 89.7065 145.971C93.9478 146.979 98.1682 147.979 102.39 148.982C102.411 148.954 102.432 148.921 102.453 148.893C99.4485 145.786 96.4493 142.681 93.4518 139.578C94.7851 136.307 103.033 131.508 107.3 131.538C108.489 135.693 109.683 139.857 110.874 144.023C110.908 144.027 110.943 144.032 110.978 144.036C112.221 139.886 113.461 135.737 114.719 131.53C120.422 132.342 125.117 134.844 128.633 139.538C125.585 142.722 122.568 145.881 119.549 149.037C119.568 149.078 119.583 149.118 119.603 149.159C123.84 148.126 128.071 147.092 132.387 146.041C134.72 151.385 134.571 156.701 132.38 162.099C128.126 161.09 123.892 160.086 119.488 159.042L119.496 159.041Z" fill="#FD5D01"/>
<path d="M162.423 134.257C165.56 137.502 168.572 140.616 171.615 143.77C168.03 148.28 163.426 150.934 157.72 151.792C156.516 147.589 155.323 143.42 154.129 139.256C154.094 139.252 154.06 139.248 154.025 139.244C152.784 143.397 151.541 147.547 150.284 151.75C144.352 151.333 139.837 148.52 136.379 143.728C139.261 140.643 142.128 137.575 144.993 134.509C144.976 134.466 144.956 134.425 144.941 134.385C140.859 135.329 136.776 136.277 132.62 137.24C130.305 131.89 130.485 126.572 132.634 121.186C136.875 122.195 141.095 123.194 145.318 124.198C145.338 124.17 145.359 124.137 145.38 124.109C142.376 121.002 139.377 117.897 136.379 114.794C137.712 111.523 145.96 106.724 150.228 106.754C151.416 110.909 152.61 115.073 153.801 119.239C153.836 119.243 153.87 119.247 153.905 119.252C155.148 115.101 156.388 110.953 157.646 106.745C163.349 107.557 168.044 110.06 171.56 114.754C168.513 117.938 165.495 121.097 162.476 124.253L162.53 124.375C166.767 123.342 170.999 122.307 175.314 121.257C177.647 126.601 177.498 131.917 175.308 137.314C171.054 136.305 166.819 135.302 162.415 134.258L162.423 134.257Z" fill="#FD5D01"/>
</g>
</g>
<defs>
<clipPath id="clip0_585_1077">
<rect width="95" height="95.7011" fill="white" transform="translate(55.1489 102.521) rotate(-30)"/>
</clipPath>
</defs>
</svg>
